<?xml version="1.0" standalone="no"?>
<!DOCTYPE svg PUBLIC "-//W3C//DTD SVG 20010904//EN"
 "http://www.w3.org/TR/2001/REC-SVG-20010904/DTD/svg10.dtd">
<svg version="1.0" xmlns="http://www.w3.org/2000/svg"
 width="473.000000pt" height="473.000000pt" viewBox="0 0 473.000000 473.000000"
 preserveAspectRatio="xMidYMid meet">
<metadata>
Created by potrace 1.11, written by Peter Selinger 2001-2013
</metadata>
<g transform="translate(0.000000,473.000000) scale(0.100000,-0.100000)"
fill="#000000" stroke="none">
<path d="M1520 3810 c-133 -24 -254 -59 -475 -134 -225 -77 -287 -93 -380
-102 -117 -11 -105 135 -105 -1226 l0 -1188 21 -21 c19 -19 29 -21 87 -15 100
10 172 29 437 116 249 82 369 115 465 128 71 9 264 9 312 0 96 -20 197 -72
283 -147 41 -36 61 -48 78 -44 52 13 62 66 20 111 -193 202 -497 258 -878 161
-44 -12 -195 -58 -335 -104 -242 -79 -310 -98 -355 -99 -19 -1 -19 13 -19
1101 0 606 2 1104 4 1107 3 2 26 7 52 10 62 8 168 40 408 120 107 35 213 70
235 76 309 83 550 67 718 -49 86 -59 171 -164 206 -252 16 -43 43 -61 75 -53
16 4 34 26 59 77 126 250 366 362 687 323 98 -13 291 -64 490 -131 203 -69
366 -115 405 -115 13 0 25 -6 27 -12 2 -7 3 -506 3 -1108 -1 -955 -3 -1095
-15 -1094 -47 1 -131 24 -345 94 -261 85 -358 114 -420 125 -22 4 -49 9 -60
11 -219 39 -413 21 -558 -53 -120 -60 -217 -144 -217 -188 0 -67 67 -75 125
-15 53 54 141 105 228 132 58 18 96 23 197 23 197 0 278 -17 653 -141 251 -83
366 -111 443 -110 93 2 84 -125 84 1216 0 1359 10 1225 -96 1234 -91 7 -166
27 -429 115 -323 107 -443 133 -610 135 -186 2 -248 -9 -368 -63 -106 -48
-225 -151 -288 -249 -8 -13 -11 -14 -16 -4 -3 8 -28 41 -55 74 -89 106 -216
186 -359 224 -94 25 -298 27 -419 4z"/>
<path d="M2316 3168 c-14 -20 -16 -122 -16 -898 0 -964 -2 -920 60 -920 63 0
60 -45 60 920 0 776 -2 878 -16 898 -20 30 -68 30 -88 0z"/>
<path d="M1595 1258 c-111 -13 -291 -61 -551 -147 -232 -77 -300 -94 -409
-105 -106 -11 -100 -116 6 -116 75 0 204 33 450 114 233 77 367 115 459 131
78 13 276 13 338 0 89 -20 197 -75 266 -137 l60 -53 146 0 146 0 60 53 c121
109 263 154 459 147 61 -2 121 -6 135 -9 14 -3 50 -10 80 -16 69 -13 176 -45
405 -121 272 -90 288 -94 399 -105 77 -7 116 10 116 51 0 45 -20 55 -145 70
-64 8 -145 31 -384 111 -212 71 -396 119 -507 132 -166 19 -339 -3 -463 -59
-64 -29 -169 -101 -184 -126 -6 -9 -36 -13 -111 -13 l-103 0 -64 52 c-74 59
-175 108 -271 132 -77 19 -231 25 -333 14z"/>
</g>
</svg>
